<svg xmlns="http://www.w3.org/2000/svg" width="1024" height="1024" viewBox="0 0 1024 1024" version="1.1"><path d="M 404.500 386.748 C 353.721 396.952, 315.252 405.320, 314.176 406.396 C 313.059 407.513, 315.029 409.187, 326.120 416.542 L 339.403 425.350 323.951 440.338 C 290.322 472.958, 259.602 499.174, 227.500 522.647 C 172.327 562.990, 127.724 584, 97.251 584 C 93.190 584, 89.045 584.441, 88.039 584.979 C 84.427 586.912, 83.904 591.304, 86.038 601.803 C 88.671 614.759, 91.005 624.117, 92.134 626.240 C 94.423 630.544, 103.680 632.565, 113.773 630.964 C 127.608 628.769, 154.837 619.575, 174.500 610.457 C 178.900 608.417, 185.675 605.295, 189.555 603.519 C 199.458 598.989, 227.403 583.563, 244.275 573.313 C 262.471 562.260, 273.063 554.997, 300 535.104 C 311.585 526.549, 342.581 500.971, 362.360 483.645 C 372.183 475.040, 380.656 468, 381.189 468 C 381.722 468, 386.872 472.754, 392.634 478.565 C 398.396 484.376, 403.648 488.952, 404.305 488.735 C 404.962 488.517, 405.828 486.575, 406.228 484.419 C 407.874 475.565, 416.092 395.790, 415.808 391.432 C 415.419 385.482, 413.910 384.857, 404.500 386.748 M 177.232 388.060 C 169.971 389.492, 161.190 394.817, 158.503 399.420 C 150.677 412.825, 84.642 570.541, 85.212 574.468 C 85.671 577.628, 89.758 579.143, 96 578.468 C 103.248 577.685, 122.886 572.742, 131.583 569.513 L 138.500 566.945 145.907 549.722 C 156.756 524.494, 178.931 471.379, 184.496 457.290 C 187.149 450.574, 189.659 445.289, 190.075 445.546 C 190.756 445.968, 212.038 495.304, 216.799 507.500 C 219.830 515.264, 221.132 514.913, 237.500 501.909 C 253.693 489.045, 257 486.080, 257 484.428 C 257 483.769, 251.128 470.241, 243.952 454.365 C 236.775 438.489, 228.787 420.801, 226.202 415.058 C 213.171 386.117, 214.113 386.948, 194.500 387.111 C 187.350 387.171, 179.579 387.598, 177.232 388.060 M 432.360 501 C 432.360 506.225, 432.529 508.363, 432.735 505.750 C 432.941 503.137, 432.941 498.863, 432.735 496.250 C 432.529 493.637, 432.360 495.775, 432.360 501 M 476.450 530 C 476.450 548.975, 476.584 556.737, 476.748 547.250 C 476.913 537.763, 476.913 522.237, 476.748 512.750 C 476.584 503.262, 476.450 511.025, 476.450 530 M 361.360 511 C 361.360 516.225, 361.529 518.362, 361.735 515.750 C 361.941 513.138, 361.941 508.863, 361.735 506.250 C 361.529 503.637, 361.360 505.775, 361.360 511 M 533.463 588.500 C 533.463 615.450, 533.592 626.331, 533.749 612.681 C 533.907 599.030, 533.906 576.980, 533.749 563.681 C 533.592 550.381, 533.463 561.550, 533.463 588.500 M 897.445 606.500 C 897.444 623.550, 897.581 630.666, 897.748 622.312 C 897.915 613.959, 897.915 600.009, 897.748 591.312 C 897.582 582.616, 897.445 589.450, 897.445 606.500" stroke="none" fill="#e8833b" fill-rule="evenodd"/><path d="M 556.539 462.046 C 547.313 463.493, 541.003 465.600, 531.198 470.508 C 515.816 478.209, 500.673 494.604, 495.004 509.696 C 490.311 522.189, 490 526.780, 490 583.588 L 490 637 511.500 637 L 533 637 533.044 589.750 C 533.092 538.400, 533.565 530.595, 537.074 523.347 C 544.562 507.879, 563.070 500.485, 580.813 505.874 C 584.661 507.043, 588.043 508, 588.328 508 C 588.612 508, 589.390 506.313, 590.056 504.250 C 590.722 502.188, 593.907 493.856, 597.133 485.736 C 600.360 477.616, 603 470.600, 603 470.144 C 603 469.081, 590.950 464.390, 584.706 463.022 C 577.637 461.473, 563.351 460.978, 556.539 462.046 M 673 462.031 C 636.696 466.916, 607.423 492.760, 597.713 528.500 C 594.605 539.939, 594.684 560.923, 597.881 572.908 C 606.482 605.158, 630.478 628.805, 663.500 637.573 C 673.744 640.293, 694.619 640.074, 705.500 637.131 C 731.475 630.108, 751.827 613.269, 763.067 589.500 C 769.246 576.436, 771.008 569.177, 771.684 554 C 772.921 526.263, 764.429 504.921, 744.826 486.500 C 728.256 470.929, 709.972 462.934, 688 461.653 C 683.325 461.380, 676.575 461.550, 673 462.031 M 851.500 461.940 C 838.144 464.149, 825.701 468.981, 815.767 475.816 C 804.655 483.461, 792.978 498.802, 787.767 512.600 C 785.569 518.421, 785.535 519.293, 785.225 577.750 L 784.911 637 806.415 637 L 827.918 637 828.217 583.250 C 828.501 532.263, 828.618 529.248, 830.508 524.597 C 833.281 517.771, 839.996 510.640, 846.797 507.300 C 851.889 504.800, 853.572 504.500, 862.500 504.500 C 871.466 504.500, 873.099 504.794, 878.294 507.345 C 888.361 512.288, 895.008 520.883, 896.923 531.434 C 897.599 535.156, 898 555.933, 898 587.184 L 898 637 919.500 637 L 941 637 941 582.458 C 941 520.914, 940.772 518.387, 933.957 504.500 C 924.236 484.691, 906.309 470.169, 884 464.032 C 875.601 461.722, 859.200 460.666, 851.500 461.940 M 432.500 516.250 C 432.500 575.512, 432.575 574.928, 423.770 584.561 C 409.911 599.725, 386.661 600.300, 372.147 585.837 C 362.142 575.867, 361 570.374, 361 532.233 L 361 501.887 358.750 503.441 C 357.512 504.296, 348.526 511.859, 338.779 520.248 C 317.260 538.769, 317.479 538.354, 317.536 560.500 C 317.570 573.587, 317.780 575.101, 320.754 583.711 C 326.422 600.119, 330.256 606.530, 340.460 616.655 C 348.523 624.657, 350.996 626.442, 360.093 630.821 C 374.286 637.655, 381.585 639.334, 397 639.313 C 411.441 639.293, 420.879 637.211, 432.442 631.494 C 453.964 620.853, 468.640 602.947, 473.825 581 C 475.663 573.218, 475.878 567.960, 476.369 518.750 L 476.905 465 454.702 465 L 432.500 465 432.500 516.250 M 675.094 506.081 C 650.486 510.393, 633.577 536.531, 639.390 561.271 C 641.514 570.311, 643.877 574.673, 650.562 581.893 C 660.600 592.736, 676.671 598.505, 690.200 596.122 C 720.468 590.790, 737.223 558.580, 723.930 531.276 C 715.048 513.031, 694.862 502.618, 675.094 506.081 M 267 572.548 C 255.040 580.332, 249.596 584.435, 249.803 585.508 C 250.182 587.472, 263.496 616.597, 269.227 628 L 273.500 636.500 292.774 636.772 L 312.048 637.043 314.524 634.567 C 315.886 633.205, 316.999 631.058, 316.997 629.795 C 316.992 626.025, 287.222 560.955, 285.559 561.079 C 284.977 561.122, 276.625 566.283, 267 572.548" stroke="none" fill="#0c6770" fill-rule="evenodd"/></svg>